<svg xmlns="http://www.w3.org/2000/svg" xml:space="preserve" width="1500" height="350" display="block" viewBox="0 0 1500 350">
  <defs>
    <linearGradient id="a" x1="405.3" x2="41.5" y1="444.5" y2="144.4" gradientUnits="userSpaceOnUse">
      <stop offset="0" stop-color="#1a2f06"/>
      <stop offset="1" stop-color="#32551c"/>
    </linearGradient>
    <linearGradient id="b" x1="317.9" x2="311.9" y1="473.3" y2="412.7" gradientUnits="userSpaceOnUse">
      <stop offset="0" stop-color="#659629"/>
      <stop offset="1" stop-color="#709e32"/>
    </linearGradient>
    <linearGradient id="c" x1="96.1" x2="121.5" y1="462.5" y2="398.9" gradientUnits="userSpaceOnUse">
      <stop offset="0" stop-color="#659629"/>
      <stop offset="1" stop-color="#77a338"/>
    </linearGradient>
    <linearGradient id="d" x1="423.8" x2="326.5" y1="367.4" y2="277.6" gradientUnits="userSpaceOnUse">
      <stop offset="0" stop-color="#1f3209"/>
      <stop offset="1" stop-color="#416a1b"/>
    </linearGradient>
  </defs>
  <path fill="#010101" d="M951.5 84.2q8.2 7.8 8.7 19.3v13.4c0 6.3-.3 12.3-1.8 18.4h2a56 56 0 0 1 40.6 14.5c1.5 1.6 1.5 1.6 3.2 1.3q2.7-2.9 5.2-5.9a22 22 0 0 1 11.8-6l1.8-.5c5.4-1.2 10.2-2.3 15.4.4 6.6 5.6 10.2 10.5 11 19.4v10.4q-.2 16.4-2.6 32.7a10 10 0 0 0 2.8-4.7l.5-1.7.6-2.3.4-1.5c1.8-7 1.6-14.5 1.6-21.8l.2-10c.2-9 1-16.8 7.7-23.3a32 32 0 0 1 21-6.9 23 23 0 0 1 14.1 8.3v1.6l1.7-.6 2.4-1 2.2-.8a36 36 0 0 1 12.6-1.6h4.8v-2c2.1-31.6 2.1-31.6 13.7-42.4a33 33 0 0 1 19.4-6 25 25 0 0 1 16.7 7.3c4.2 6.3 4.1 12 4 19.4v3a58 58 0 0 1-1.8 15.2h2.2a34 34 0 0 1 20.7 4.8v-2.7c.4-9.3 1.4-15.8 7.9-22.7 6.8-6.4 13.6-7.5 22.5-7.3 6.4.4 10.5 3 15 7.6 6.2 7.7 5.4 16.4 5 25.8l2.3-1a30 30 0 0 1 18.5-1.8 25 25 0 0 1 13.4 14l.6 1.5 2.3-1.6c2.4-1.6 2.4-1.6 4-1.6v-1.6a41 41 0 0 1 28.4-9.8 21 21 0 0 1 14.2 8.3l2 2a23 23 0 0 1 5.1 13.7h1.6l.6-1.4c4.6-8.6 14-14.6 22.3-19l1.9-1.1a69 69 0 0 1 51.5-4 27 27 0 0 1 17 14 72 72 0 0 1 2.3 22v10.8q0 5.6-1 11l-.1 3.8v2.1l-.2 2.4q-.5 14.3-1.5 28.8l-.2 2.2c-1.8 26.9-1.8 26.9-4.5 36.7l-.5 2a84 84 0 0 1-17.4 34.9l-1.7 2a51 51 0 0 1-33 18.7q-3.6.2-7.3.1h-2.7a47 47 0 0 1-32.6-13V309h-1.6l-2.4-4.5-1.2-2.6c-2.4-5.1-2.1-10.3-2.1-15.8l-.1-2.8c0-8.5 1.5-15.7 7.5-21.9 4.8-4.2 10.2-5.2 16.5-6l-1.4-1q-6.1-4.6-11.3-10l-.7 1.8c-3.2 8.4-6.3 12.8-14.4 16.9a31 31 0 0 1-22.3 1 28 28 0 0 1-12.3-11.9c-.3-2.3-.3-2.3-.4-4.7V242l-.2-2.8-.2-6.8q-3.3 5.8-6.3 11.8c-9.3 19.3-9.3 19.3-19.7 23.7-6.3 2-13.8 1.4-19.7-1.6a21 21 0 0 1-7.9-8.7V256l-1.7 1.8a34 34 0 0 1-25.1 11.1c-7 0-11.5-1.6-16.6-6.5a32 32 0 0 1-5.8-21.2v-2.8c.1-14 2.2-27.6 4-41.4l1-8-1.8.8q-6 1.3-11.8 1.6l-2.5.3-6 .4v2.5q0 4-.6 7.9-1 7.2-1.7 14.4c-5.3 52.9-5.3 52.9-19.6 64.7-5.1 3.7-11.4 3.4-17.5 2.8-7.3-1.5-12.1-3.4-16.7-9.3a31 31 0 0 1-3.3-16.8V256c.1-9.6 1.8-19 4.2-28.3q1.4-5.5 2-11.2l.4-2.2q1-7.5 1.6-15H1102l-.1 3.8a83 83 0 0 1-18.8 46.7l-1.4 1.6a43 43 0 0 1-28.8 13.5c-16.2.5-31.2-1.4-43.6-13a32 32 0 0 1-9.8-19.4h-1.6l-.6 1.3c-8.8 16.5-34.3 29.4-51.2 35-11 3.3-21.6 5.2-32.2 0a35 35 0 0 1-12.3-13.4l-1.2 1.5a33 33 0 0 1-19.3 11.9c-8.3.7-14 .4-20.6-5q-6.5-5.8-7.1-14.7l-.1-8.9v-1.6c0-13.6.5-28.4 4.2-41.6l-2.5.8-1.6.4-3.5 1.1q-4.7 1.5-9.2 2.7a52 52 0 0 0-12.4 6l-1.7 1c-1.7 1.3-1.7 1.3-1.9 3.6v7.4l-.1 8.4v1.6q-.3 7.4-1.3 14.6l-.2 2a29 29 0 0 1-8.2 17.4 31 31 0 0 1-16.6 5.6l-2.8.3a34 34 0 0 1-18.5-8.2c-3.4-4.8-4.8-9-4.8-14.7v-16c0-2.6 0-2.6.5-4.7q.7-5.4.8-10.8l.1-2.4 1-24.9-2.9 1.2q-3.7 1.5-7.8 1.7l-2.4.3-2.2.1-2.4.2-6 .4v2.5q0 4-.6 7.9-1 7.4-1.7 14.7a458 458 0 0 1-4.7 34.1l-.3 1.7c-2 11.3-5 21.6-14.7 28.7a28 28 0 0 1-20.1 2.2c-7.4-2-11.5-4.6-15.4-11.3-5.6-12.8-1-30.6 1.9-43.5q3.2-14.8 4.4-29.9h-5l-2.7.1q-2.8 0-5.7-.8v2.8q-.5 10-1.8 20.1-.6 5.2-.8 10.4v7.8a26 26 0 0 1-6.2 17.9 33 33 0 0 1-23.2 8.2q-10.5-1.2-17.2-9.4c-3.4-4.8-3.5-9.2-3.5-14.9v-2.6l-.2-6.4-1.1 2.3-6 11.9c-4.2 8.7-9 17.3-18.1 21.3a29 29 0 0 1-21.7-2.6 17 17 0 0 1-4.9-5l-1.3-2a26 26 0 0 1-3-14.4V242l.1-4.2-1.4 1.6a60 60 0 0 1-39.2 20 65 65 0 0 1-45.4-14.5l-3.1-2.4a18 18 0 0 0-6 4.4c-15.3 13.8-34.5 14.3-54 13.8a71 71 0 0 1-43.7-21.4c-12.6-14.8-15.2-30.5-15.1-49.3v-8c0-23.8 5.6-44.8 21-63.2l1.4-1.8 3.3-3.7h1.6l.8-2.4 5.5-4.3 1.6-1.1 6.6-4.6a73 73 0 0 1 45.4-7.8q7.3 2.1 14.2 5.2v1.5l1.5.5c3.7 2.4 5.2 7.1 6.4 11.4q.4 5 .3 10v5c0 6-.2 10-3.4 15l-1 1.5c-4 6-12.6 9.5-19.3 11l-5.5.6c-8.6 1-17 3.4-22.6 10.3-4.2 6.1-7 14.2-6 21.6q.6 3.7 2.3 7.1c1.7 1.2 1.7 1.2 4 1.6l2.8 1.2a28 28 0 0 0 10.4 1.5h1.9c4.4-.1 7.9-1 11.8-2.7a32 32 0 0 1 21.2-.8l-.4-2c-1-7.2.8-15 3.5-21.7l.8-2a79 79 0 0 1 14.2-24h1.6l.5-1.5c5-8.7 18.9-13.8 28-16.4a57 57 0 0 1 41 6 52 52 0 0 1 18.8 19l1.6.7.2-2.4a23 23 0 0 1 9.2-14.6c6-4.2 12.6-4.2 19.8-3.5 3.3 1 5.8 2.8 8.7 4.7v1.6h1.6c1 1.3 1 1.3 2 3l1 1.6 2.5 4.9 1-.8 4.9-3.7 1.7-1.4a39 39 0 0 1 27.9-8.6 24 24 0 0 1 13.4 8.2q3.4-1.2 6.5-3.2c6.4-3.7 13.8-3.4 21.1-3.2v-2c2-31.4 2-31.4 13.7-42.4a33 33 0 0 1 19.4-6 25 25 0 0 1 16.8 7.3c4 6.2 4 11.8 4 19v2.8c0 5.6-.5 10.6-1.8 15.9h2a36 36 0 0 1 22.4 5.5l.6-1.4c2.4-4.3 7-7 11.3-8.8a29 29 0 0 1 22.4 2.5c5.3 3.7 6.9 7 8.3 13.2l3-.7 3.8-1.1 1.9-.6a41 41 0 0 1 31.5 1.7q.8-6.4.8-12.7a25 25 0 0 1 8.5-18.7c5.3-5 10.5-7 17.9-7h2a21 21 0 0 1 12.7 4.4h1.5l.5-2.2.6-3 .6-3a25 25 0 0 1 10.6-15c9.5-5 21-5.6 29.7 1.3M526.9 194.5v3.2q4 1.9 8 .8 3.4-2.4 6.2-5.6c-.4-3-.4-3-2-5.3-6.3-3.3-9 2.2-12.2 7m853.6-1.7-2.9 4-1.5 2.2-1.1 1.7c1.4 1.8 1.4 1.8 3.6 1.8 1.8 0 1.8 0 2.7-1V193zm-430 1.6-.7 5.5 2.7-2.3 1.6-1.3 1.2-1.1v-.8z"/>
  <path fill="#fcfcfc" d="M1415.2 147.2c2 1.6 2.4 2.3 3.1 4.7q.4 6.5.3 13.1v2a561 561 0 0 1-2 43.4c-4 57.3-4 57.3-24.8 77a40 40 0 0 1-28.6 9.9c-4.8 0-9-.6-13.5-2.6l-1.8-.8q-7.3-3.4-11.6-10.2c-1-4.2-.5-7 1.4-10.7 2.1-2.4 3.4-3.5 6.6-3.8 3.5.3 6 1.3 9.1 2.6 6 2.4 11.1 3.9 17.4 1.6 2.7-1.3 5-2.4 7-4.5 1.1-1 1.1-1 2.7-1l.6-1.8a52 52 0 0 1 3.2-6.3 36 36 0 0 0 5-18.2V239l-.1-1.9h-2l-12-.2a43 43 0 0 1-28.8-11.3c-8.4-8.8-9.9-20.6-9.5-32.1a56 56 0 0 1 16-36c16.7-14.3 41.8-21.6 62.3-10.3m-34.7 45.7-2.9 4-1.5 2.2-1.1 1.7c1.4 1.8 1.4 1.8 3.6 1.8 1.8 0 1.8 0 2.7-1V193zM940.3 92.8a10 10 0 0 1 5.6 6 33 33 0 0 1 1 10.8q0 4.7-1 9.3a88 88 0 0 0-1.3 15.8l-.1 3-.3 7.1 2 .8 3.6 1.6 4.5.2c16.8.8 29.7 3.2 41.5 16a23 23 0 0 1 5.2 13.8l.2 2c.7 13.3-6 24.6-14.6 34.2a107 107 0 0 1-45.5 29.2l-1.8.7a25 25 0 0 1-19.2.4 25 25 0 0 1-8.4-19.7v-7.8q0-7.7 1.3-15.3a127 127 0 0 0 1.5-10.9l1.3-13.8a1418 1418 0 0 1 3.2-34.5l.2-1.9q.2-3.4 1.3-6.8l.6-8.1.3-6.4c1.2-18.7 1.2-18.7 5.5-23.4 4.2-3 8.3-3.1 13.4-2.3m10.3 101.7-.8 5.5 2.7-2.3 1.6-1.3 1.2-1.1v-.8zM549.8 141l2 .7c4.7 1.7 8.4 4 12.2 7.2l2.4 1.5v1.6h1.6q1.9 2.5 3.4 5.1l1 1.6a52 52 0 0 1 6.1 36.3 57 57 0 0 1-24 32.4 47 47 0 0 1-35.1 4.6c-12.1-4.3-22.1-9.6-27.8-21.5a55 55 0 0 1 1.7-41 56 56 0 0 1 29-28.5c8.7-1.8 19-3.2 27.5 0M527 194.5v3.2q4 1.9 8 .8 3.4-2.4 6.2-5.6c-.4-3-.4-3-2-5.3-6.3-3.3-9 2.2-12.2 7"/>
  <path fill="#fbfbfb" d="M612.1 144.8c3.7 2.6 4.5 5.2 5.6 9.5l.1 6.4v1.8l-.1 18.6c5.3-3.2 8.9-7.6 12.6-12.6 6.3-8.7 14.7-18 25.2-21.3a23 23 0 0 1 12.2 1c6.8 7.2 7 16.1 7 25.3-.3 9.3-1 19.3-3 28.4q-.7 4.1-.5 8.3l-.1 15v1.7c-.1 4.5-1.5 6.3-4.5 9.4-3.7 2.7-7.4 2.7-11.9 2.9a11 11 0 0 1-6.1-2.9c-2.2-3.8-1.6-8.6-1.4-12.8v-3.2q.1-9.1 2-18.1c1.5-8.5 1.4-17.2 1.6-25.8l-3 1.4-1.8.8c-1.8 1-1.8 1-3.1 3.3h-1.6l-.6 1.4a47 47 0 0 1-4.1 6.6l-3.6 5a239 239 0 0 0-18.7 32.5c-5.7 11.4-5.7 11.4-10 14.5a17 17 0 0 1-8 .7 16 16 0 0 1-5.5-5.5l-.1-5.8V228c.1-2.4.5-4.4 1-6.8l.2-6.3q.4-7.4 1.6-14.7 2.5-15.8 2.4-31.7c.2-8 .8-15.8 6-22.2 3.3-2.2 6.3-2.2 10.2-1.6"/>
  <path fill="#fcfcfc" d="M1260.6 144.8c3.3 1.4 4.7 3.2 6.3 6.3 1 3.2.8 6.3.8 9.5v21.3c4-3.4 7.4-6.7 10.4-11.1a69 69 0 0 1 23.5-22l1.6-1c4-1.5 9.4-1.6 13.4 0 4 3 6 8 7 12.8 1 12.4 0 24.6-1.7 36.8q-1.7 13.7-1.9 27.4v4.7q-.6 4.4-3.9 7.1c-4.5 2.3-8.7 3-13.7 2a7 7 0 0 1-4.8-3.9c-2.6-9.8-.4-22.4 1.2-32.3a150 150 0 0 0 1.2-25.2c-4.6.4-6.3 2.9-9.1 6.3a182 182 0 0 0-9 12.6l-1.3 1.8-3.5 5.3-1.5 2.4q-6.3 10.2-11 21.1c-5.3 11.3-5.3 11.3-9.9 15.2a13 13 0 0 1-10.6-.2 9 9 0 0 1-3.3-4.6q-.2-3.4-.2-6.9v-2q.5-12.3 2.2-24.4c2.5-19.2 2.5-19.2 3.3-38.6 0-6.1.7-12.7 4.7-17.7 3-3 5.6-3.2 9.8-2.7"/>
  <path fill="#fbfbfb" d="M738.4 98.9h2.9c2.7.2 4 .5 5.7 2.5.7 5.9-.8 11-2.3 16.6-1.7 6.6-4 19-.8 25.2q4.7 1.6 9.5.4a60 60 0 0 1 11.8-.8c3.3 0 5.6.1 8.3 2.2 2.6 3 2.5 4.4 2.2 8.2a14 14 0 0 1-4.4 8.4c-6.2 3.8-14.8 4-21.9 5l-2.7.3-2.4.3c-2.2.3-2.2.3-3.6 2-4 10-4.2 21.2-5.1 31.7-.8 9.5-1.6 19-3.6 28.3l-.5 2.8c-3.8 20.5-3.8 20.5-9.9 25.5a13 13 0 0 1-10.2.3 22 22 0 0 1-6.2-4.1c-.8-5.8.6-11.4 1.8-17l1.1-5 .6-2.6a272 272 0 0 0 4.3-32q1.1-11.9.9-23.9a20 20 0 0 0-7.7-.6l-2.6.1-5.4.4-2.6.1-2.4.2c-2.7-.2-4-1-6.1-2.6-3.2-4-3-8.3-2.4-13.4 1.7-3.6 4.4-7 8.4-8.3q3.3-.5 6.5-.6c8.7 0 8.7 0 16.7-2.9 4.4-6.5 4.1-15.5 4.8-23.1.8-8 1.4-15.6 7.5-21.5 3.3-2 6-2.1 9.7-2.1m412.6 0h3c2.7.2 3.9.5 5.7 2.5.6 5.9-.9 11-2.4 16.6-1.6 6.6-4 19-.8 25.2q4.8 1.6 9.6.4a60 60 0 0 1 11.7-.8c3.4 0 5.6.1 8.4 2.2 2.5 3 2.4 4.4 2.2 8.2a14 14 0 0 1-4.4 8.4c-6.2 3.8-14.8 4-22 5l-2.6.3-2.5.3c-2 .3-2 .3-3.5 2-4 10-4.3 21.2-5.1 31.6l-1.3 13.3-.2 1.9c-.4 4.4-.4 4.4-1.3 6.1l-.5 3.3-.3 2-.3 2.1c-3.2 21.4-3.2 21.4-8.8 27a13 13 0 0 1-9.8 2c-3.6-1.4-5.9-2.5-8-5.6-.3-5 .6-9.5 1.9-14.4 4.8-21.3 7.5-43.4 6.9-65.3q-3.8-1-7.7-.6l-2.6.1-5.4.4-2.6.1-2.4.2c-2.7-.2-4-1-6.2-2.6-2.7-3.6-2.8-6.7-2.6-11 .6-4.3 2.8-6.5 5.9-9.4 3-1.7 5.9-1.7 9.3-1.9 8.7 0 8.7 0 16.6-2.9 4.5-6.5 4.2-15.5 4.8-23.1.8-8 1.5-15.6 7.5-21.5 3.4-2 6-2.1 9.7-2.1"/>
  <path fill="#fcfcfc" d="M446.8 106.6h2.7c5.3 0 10.5.2 14.9 3.8 1.9 2.4 1.5 5 1.4 7.8a9 9 0 0 1-3.6 6c-5.4 3.2-11.5 3.8-17.5 4.8a43 43 0 0 0-29 15.8 62 62 0 0 0-7.8 44.5q2.5 10.9 11.8 17a47 47 0 0 0 32.5 4q4.4-1.2 8.5-3.2l5.3-.1 2.9-.1c4 .3 6.5 1.4 9 4.4 1.2 2.9 1 4 .1 6.9-3.6 7.3-11.8 11-18.9 14.1-18 5.8-36 2.4-52.5-5.6a47 47 0 0 1-22.2-26.4c-1.6-6-1.4-12-1.3-18.2l-.1-6a77 77 0 0 1 22.5-55 59 59 0 0 1 41.3-14.5"/>
  <path fill="#fbfbfb" d="M1082.3 143.2c4 3 5.8 6.9 6.8 11.8 2.9 22.3.8 49.6-12.3 68.6a37 37 0 0 1-25.3 15 43 43 0 0 1-31.2-8.3 32 32 0 0 1-10-21.9v-19.3c-.2-26.4-.2-26.4 8.4-35.2a20 20 0 0 1 13.1-2.8c1.9 1.5 2.8 2.6 4 4.8a103 103 0 0 1-1.2 22c-2.8 19.3-2.8 19.3 3.5 37.1 4 2.6 9 2.2 13.5 1.3 3.4-1.2 5.1-3.2 6.8-6.2a123 123 0 0 0 4-10.2 75 75 0 0 0 3.5-26.7v-17.5a13 13 0 0 1 4.2-9.9c3.4-3 7.9-3.4 12.2-2.6"/>
  <path fill="#fcfcfc" d="M808.6 137.7c2.9 1.6 3.7 2.4 4.7 5.5v18.2a42 42 0 0 0 12.5-5q13.5-8.3 29.3-6.9c3.2 1 5.4 2.4 7.9 4.6q1.7 4 .8 8c-2.1 5-6.3 7.3-11 9.5q-3.9 1.2-7.8 2a74 74 0 0 0-23.3 9.5l-1.5.8c-3.5 2.3-7 4.9-8 9.1l-.4 5.9v2.2l-.5 15.9v2.2c-.7 17-.7 17-6.4 22.3-3.7 2.2-8 1.6-12.1 1.1a13 13 0 0 1-7.1-5.5c-.2-2.4-.2-2.4-.2-5v-2.7c.2-2.5.2-2.5.6-4.3a58 58 0 0 0 .8-8.1v-1.7l1.2-24.7 1.1-22 .1-1.5q.2-3.4 1.1-6.5l.8-8.7c.5-5.3 1.6-10 5.8-13.4a24 24 0 0 1 11.6-.8"/>
  <path fill="#fbfbfb" d="M1223 153a12 12 0 0 1 4.4 4.4c.4 2 .4 2 .3 3.9v2q-.6 3.4-1.8 6.8a321 321 0 0 0-3.7 20.7l-.3 1.9a211 211 0 0 0-2 33.4v2.8a15 15 0 0 1-4.8 9.5q-6.8 5.3-15.3 4.2a12 12 0 0 1-5.5-6.3 96 96 0 0 1 1.4-22l1.3-9.5 2.1-15.8 2-14.2v-1.6l.6-4.4a26 26 0 0 1 9.2-16.1c4-1.9 8.1-1.2 12.1.2m-328.4-.4q3 1.5 5 4c1 3.8.7 6.9-.6 10.5a73 73 0 0 0-2.9 12.4l-.4 2.4a301 301 0 0 0-4 43.4c0 5-.3 9.5-4 13.3a22 22 0 0 1-15.2 4.1 10 10 0 0 1-4.9-3.6c-1-2.7-.9-5.4-.9-8.2v-1.9a186 186 0 0 1 2.6-26l3.6-26c1-9.1 2.8-17.8 10-24.1q5.8-2.4 11.8-.3"/>
  <path fill="#030303" d="M545.9 163a33 33 0 0 1 10.2 15c.8 8.6.7 16.3-4.7 23.4-5.2 6-9.8 9.8-18 10.7a21 21 0 0 1-16.4-5.4 22 22 0 0 1-5.8-13l-.4-2.7a41 41 0 0 1 11.4-25.7q11-10 23.8-2.4m-19 31.5v3.2q3.9 1.9 8 .8 3.4-2.4 6.2-5.5c-.4-3-.4-3-2.1-5.4-6.2-3.3-9 2.2-12 7m421-27c10 0 19.7 1.6 27.4 8.4 2.6 3 3.1 5.8 3 9.5-1.4 7.3-8 13.4-13 18.6l-1.5 1.7a70 70 0 0 1-21.7 14.4 15 15 0 0 1-8.3 2c-.5-40-.5-40 7.9-53.6 1.6-1.6 4.2-1 6.2-1m2.5 27-.8 5.5 4.3-3.6 1.2-1.1v-.8z"/>
  <path fill="#020202" d="M1385.4 163.6h1.8q3.8.5 7.5 1.7l.1 28.6c0 6.7-.4 15.8-5.3 20.9-4.5 2.5-12.3 1.5-17.2.5q-8.2-3-12.3-10.5c-2.4-7.2-.4-15.3 2.5-22a45 45 0 0 1 16.4-18.3q3.2-1 6.5-1m-5 29.4-2.8 4-1.5 2.2-1.1 1.7c1.4 1.8 1.4 1.8 3.6 1.8 1.8 0 1.8 0 2.7-1V193z"/>
  <path fill="#f9f9f9" d="M898.7 115.8c2.5 1.6 3.8 2.7 5.3 5.3q1.4 6.2-2 11.5a14 14 0 0 1-9.7 4.6c-4 .1-7.3.2-10.4-2.6a15 15 0 0 1-1.6-11 20 20 0 0 1 7-8 16 16 0 0 1 11.4.2"/>
  <path fill="#fafafa" d="M1229 117.2c2.9 3.2 2.8 5.7 2.6 9.7a10 10 0 0 1-3.4 6.9c-4 3-8 3.7-13 3.5-3.1-.6-4.5-2-6.7-4.3a13 13 0 0 1-.8-8.7c2-4 5.1-7.6 9.3-9.2 4.8-.7 8-.5 12 2.1"/>
  <path fill="#98ce02" d="M115.3 31c1.9-3.7 4-4.8 7.3-7.2 9.2-6.7 23-4.2 32.5.5 1.4.8 9.6 5.5 10.4 6.5 1 .6 1.4 1.2 2.1 1.7 3 2 5.2 4.1 7.5 6.7.7.8 1 1.8 1.8 2.7 1.7 1.9 3.3 3 4.5 5.2l2.8 3.5c1 1.8 1.4 3 2.7 4.6 3.3 3 4.1 2.3 6.6 4.1 4 0 7.6-.1 11.6 1 1.2.2 3.1 0 4.3.3 4.8.8 14 2.6 18 4.7 1 .4 4 1.7 4.8 2.4 2.8 1.1 7.3 8 10.3 8.5 3.4.4 6.7-3.6 10.2-3.7 1.2 0 2.5-1.7 3.8-1.7 3.6 0 6.2-.4 9.5 1 .6.3 4.6 0 5.5.2l5 1.3 4.3 1c3.7 1.6 8 3 11.1 5.3l3.4 2.4a64 64 0 0 1 21 19.7c.7 1.3 2.2 2.5 3 3.7a64 64 0 0 1 8.4 15.1c.6 1.8 1.7 3.6 2.3 5.6a89 89 0 0 1 2.5 12c.3 2 .7 3 .8 5.4.2 2.2-1 13.5-.7 14.7 1 1.6 1.8 2.2 2.5 3.6a44 44 0 0 1 5.6 22.6c0 4.7 0 7.7-1.4 12.4-.7 2-1.9 7.2-2.7 8.8-.4 1.9 0 4.1-.3 6a40 40 0 0 1-4.5 14.2c-.6 1-1.2 2.8-2 3.6-1 1.4-6.2-2.6-7.2-1.3s-9.2 8.8-9.6 10.2c-2.2 6.6 3.5 14 0 20-.5.8-5.9-8.6-6.3-8-1.3 2.7-1.3 20.7-3 23.4l-7.9 11.7c-.7 1.1-2.3 2.7-3.2 3.9-1 1.4-2.3 3.3-3.7 4.4l-1.3 2.4c-.2 4.3.4 5.4.8 9.3q.3 4.9.2 9.7c-.2 5.7.8 9.8-2.4 14.9-3 4.7-5.3 5.4-10.2 7.6-.7.4-1 .6-1.7.7a35 35 0 0 1-7.2 1.8c-3.1.3-20.8.4-23.3-.3-3-.7-4.9-2-7.3-3.8l-2-1.2c-.9.2-7.6.2-8.7.2-3.7-.2-8.2 0-11.8 0a29 29 0 0 1-20-9.9c-1.6-1.3-2-1.5-3.8-2.4-4.1-.8-7.5.1-11.2 1.1-2.2 2.4-3.4 4.7-5.2 7.3-1.4 2-3.8 5.4-5.5 7l-.8-.7c-1.2.3-2.3 1.8-3 2.7-.9 1.3-1 1.4-1 2.8l-6.2 4c-1.9.7-4.6 2-6.6 2.3l-7.5 1.2c-2.3.5-5.4.1-7.8.1-1.1 0-2.7-.9-4-.8a53 53 0 0 1-20.8-3.6c-1.5-.6-3.7-2-5.2-3-.6-2.6-.2-5-.1-7.8-2.2.7-4.6.5-6.9.7-6.4.5-12 0-18-2.7-1.8-.9-4.2-1.5-6-2.6-3.2-2-8.3-6.5-9.5-10.1a23 23 0 0 1-.3-8.8 207 207 0 0 1 12-25.5q3.5-6.7 7.2-13.3c-1-1.6-5.6-8-5.7-9.1-.3-1.5-1.8-2.3-2.3-3.7-.2-.5.3-.6.2-1.2-.4-1-1.8-3.2-2.4-4.4q-1.4-2.8-2.5-5.7c-2.6-5.6-5-11.5-6.4-17.5-.4-1.8-.3-3.7-.7-5.4-.6-2.6-1.7-4.8-1.9-7.5v-7l-.3-5.3v-8.8q-.2-3.4.2-6.6c.5-4.2 2.5-9 3.7-13 1-2.8 1.5-5.7 2.5-8.5l2.5-5c1-2.3 1.7-5.1 3-7.3l3.2-4q2-3.2 4.3-6.3 3.5-5 7.3-9.7l2.7-3.9c1.9-2.2 4-4 6-6.3q.6-1 .6-2c1.5-1.2 3.3-3.3 4.5-4.8.6-.8 1.4-2 2.2-2.7q1.7-1.4 3.2-3 1.3-2 2.6-3.4l8.5-8.5c.8-.7 1.1-2.2 2-3 .3-.3 1.3-.4 1.8-.7q1-1.2 2-2c.6-.4.6.2 1-.2l1.5-1.4c1.7-1.7 2.7-2.9 4.9-4 1-2.4 5.4-4.6 7.1-6.7.6-.7 3.6-1 3.8-2.4 0-.4 1.4-1.2 1.8-1.6 2.9-2.8 6.1-4.6 9.5-6.7 2-1.2 3.4-2.6 5.8-3.7 1.6-.7 3.2-2.2 5.1-2.6 1.4-.2 4-1.1 3.6-2.8-2.4-6.1-15.4-5.8-20.2-3.8l-8.9 3c-3.5 1.1-6.8 2.5-10.6 1.2-5.6-1-12.4-8.6-14.4-13.7-1.7-4.8-3-13.7-.6-18.4q.5-1 1.3-2"/>
  <path d="M243.7 75.1c6.3-1.9 1.2 0 6.3-2.5 1-.6 5.2-1.8 6.5-1.8 5.8-.4 10 .7 15 1.2l5 1.3 4.3 1c3.7 1.6 8 3 11.1 5.3l3.4 2.4a64 64 0 0 1 21 19.7c.7 1.3 2.2 2.5 3 3.7a64 64 0 0 1 8.4 15.1c.6 1.8 1.7 3.6 2.3 5.6a89 89 0 0 1 2.5 12c.3 2 .7 3 .8 5.4.2 2.2-.7 14.9-.7 15.5l-.4 5.8c-.3 2.4-1.5 6-1.5 8-1.5 6.3-5.4 15-9.9 19.5-14.9 15.6-30.2 16.7-49.7 11.4-5 15-15.7 28-29.7 35.5a95 95 0 0 1-16 6.7c-13 4-26.9 4-40 .5a78 78 0 0 1-47.7-38 80 80 0 0 1-8.3-59.7c5-16.7 14.6-34 30.3-42.7a81 81 0 0 1 49-7.1c2.4.3 5.7.7 8 1.3 1-2 2.6-4.2 3.9-6a53 53 0 0 1 15.8-15.8z"/>
  <path fill="#fefefe" d="M223.5 103c4.6-11.8 14.6-22.2 27.7-23.4 17.7-3 36.2 3.5 49 16a65 65 0 0 1 25.9 48.6c2.1 17-.8 36.2-14.4 47.9-10.4 10.2-27 10.7-39.5 4.3.2-3.7-1.4-17.7-2.4-7-1.1 14-9.5 26.3-19 36.2-7.2 7.7-17.7 10.1-27.2 13.9A70 70 0 0 1 158 224a83 83 0 0 1-23.2-40.2 83 83 0 0 1 13-58.4c11.7-16 32.7-21.8 51.8-22.2a81 81 0 0 1 31.1 6.7c-1-3.5-4-5.6-7.3-7"/>
  <path fill="#ebf8fb" d="M302.4 171c7.5.2 12-6.6 16.3-11.6.3-4.8 4.1-13 7.9-7.5 1.2 16.5-5.1 34.6-19.7 43.8-10.2 7-24 6-34.7.7-.5-2.7.2-9.8-1.8-8.7a44 44 0 0 1-7.1 21.4c-6.5 11.6-16 22.8-29.4 26.3a68 68 0 0 1-67.2-5c-4.6-3.8-11.6-7-13.6-12.6q6.1 4.5 13.7 5.4c5.6 2.2 9.3.7 15.2 1 6 .2 13.2.7 19-2.1 8.3-1 15.6-5.6 23.8-7.2 7.1-2.9 15-5.2 20-11.3 5.7-3.9 9.6-10.2 14-16 1.6-1 24.3-14.2 31.9-14.8 4 0 8.4.8 11.7-1.8"/>
  <path d="M259.8 181.6c-10.2 8.3-21.9-20.2-6-24 3.7 1.2 5.1 3 6.8 6.4 1.9 3.7 2.7 6.4 2.7 10.6a11 11 0 0 1-3.5 7"/>
  <path fill="#fefefe" d="M252.6 159.2c2-.2 6.1 1 5.8 3.5-1.4-.3-6.1-1.6-5.8-3.5"/>
  <path d="M309.6 125c8-.4 12.7 9 12.5 16-.2 4-.5 6.7-4.4 8.8-5.6 1.1-9.7-4.7-11.5-9.3-1.4-4-1.9-13.8 3.4-15.4"/>
  <path fill="#fefefe" d="M312.3 127c2 0 5.5 2.1 5.4 4.4-2.2 0-5.5-2-5.4-4.5"/>
  <path fill="url(#a)" d="M138.8 26c2.7-5.4 5.7-6.9 10.6-10.4 13.5-9.9 33.8-6.3 47.7.7 2.1 1.1 14.1 8 15.2 9.5 1.4.9 2.1 1.8 3.2 2.5 4.3 2.9 7.6 6 11 9.8 1 1.2 1.4 2.6 2.6 4 2.4 2.7 4.8 4.3 6.6 7.6 1.2 1.6 2.9 3.4 4 5.1 1.6 2.6 2.1 4.4 4.1 6.8 4.7 4.3 6 3.4 9.6 6 6 0 11.2-.2 17 1.4 1.7.4 4.6 0 6.3.5 7 1.1 20.5 3.8 26.5 6.9 1.5.6 5.8 2.4 7 3.5a37 37 0 0 1 16.8 11c-.4.1-11.1 4.8-10.7 4.8-1.3-1.7-7.8-4-10-4.9-12.3-5.3-24.8-10.7-38.4-11.6-4.7-.3-9.3 0-14 0-1.2 1-1.5 1.6-3.1 1.3-.9.3-3.7 2.1-5 2.8l-9.1 4-2.4-.9c-1.3 1-1.7 1.2-1.9 2.7l-.6.3c-2-1.3-2.1-4.4-5.3-3.8-2.8.6-11.2 5.5-14.3 7-45.7 22.7-96 77.8-122.5 121q-5.4 8.5-10 17.5c-12.4 25.8-13 51.2-6.4 78.8a252 252 0 0 0 6.6 23.5c6.6 19.2 16 37.2 25.3 55.2 2.3 4.4 4.1 10.3 7.1 14.2 3.2 1.8 7.2 3.5 10.5 5.1q5.6 3 11.2 5.4l8.4 3.2c1 .4 4.1 1.4 5 2l.2-.4c4-5.2 6-11.1 12.3-14.6l-13.4 27.3c-4.6 9.2-10.5 17.6-13.6 27.5-2.7 8.7-1.2 16.7 7.8 20.3 13.3 5.4 28.7 6 43 4.9 2.9-.3 7.9-2 10.7-3 14.1-5.5 22.3-18 30.2-30l13-19.8c4-5.8 9-12.3 12.4-18.2a101 101 0 0 1-4.4 15.6q0 .6.4.8c2.9.9 5.8-.3 9.1.2 1.9-.7 8.8-.7 11-.7 37.8-1.6 76.7-6 112-20 3.4-1.3 5.5-3.2 9.4-4.2h.4c5.4-5.5 9-11.6 13-18l8.2-13.5c1.3-1.6-1.3-2.1 2.3-1.8 1.5-.1 1.3-.2 2.3-.6a28 28 0 0 0 7.4-5.2c.9.4 1 .7 1.5 1.6l3-3.2c-1.8 4.1-8.1 14.4-10.7 18.4L403.4 399c-1.1 1.7-3.4 4-4.7 5.7-1.6 2.1-3.4 4.9-5.5 6.5l-1.8 3.5c-.3 6.3.5 8 1.1 13.6q.4 7.1.3 14.3c-.2 8.4 1.2 14.4-3.5 21.8-4.4 6.9-7.8 7.9-15 11.2-1 .5-1.5.8-2.5 1a51 51 0 0 1-10.5 2.6c-4.6.5-30.5.6-34.2-.4-4.3-1-7.1-2.8-10.6-5.5q-1.4-1-3-1.8c-1.3.3-11.2.2-12.8.2-5.4-.2-12 .2-17.2 0a43 43 0 0 1-29.5-14.4c-2.2-2-2.9-2.2-5.5-3.6-6-1.1-11 .2-16.4 1.7-3.2 3.5-4.9 6.9-7.6 10.6-2 2.9-5.5 8-8 10.3-2.4 5-13.2 11.2-16 12.8-2.9 1.1-7 3-9.9 3.5l-10.9 1.8c-3.4.6-8 .1-11.5.1-1.6 0-4-1.3-5.7-1.2a78 78 0 0 1-30.7-5.3c-2.2-.9-5.3-3-7.5-4.4-1-3.8-.4-7.4-.2-11.4-3.3 1-6.8.8-10.1 1-9.4.7-17.6 0-26.3-4-2.8-1.2-6.2-2.2-8.8-3.8-4.8-3-12.2-9.4-14-14.8a33 33 0 0 1-.4-12.8 304 304 0 0 1 17.4-37.5q5.2-9.7 10.7-19.5c-1.4-2.3-8.2-11.7-8.4-13.3-.4-2.1-2.6-3.4-3.4-5.4-.3-.7.5-.9.3-1.7-.5-1.6-2.6-4.7-3.5-6.5q-2-4.1-3.7-8.4c-3.7-8.2-7.4-16.8-9.3-25.6-.6-2.6-.5-5.4-1-8-.9-3.7-2.5-7-2.8-11-.3-3.4.1-6.8 0-10.3l-.5-7.7q-.1-6.4 0-12.8-.2-5 .3-9.8c.8-6.1 3.7-13.1 5.5-19.1 1.3-4 2.2-8.3 3.6-12.3 1-2.5 2.5-4.8 3.6-7.3 1.5-3.5 2.5-7.6 4.5-10.8 1.3-2.1 3.2-3.8 4.6-5.9q3-4.6 6.3-9.2 5.2-7.2 10.7-14.2l4-5.7c2.8-3.2 6-6 8.7-9.3q1-1.3 1-3c2.2-1.7 4.8-4.8 6.6-7 .9-1.1 2.1-3 3.2-3.9q2.5-2.1 4.7-4.5c1.3-1.6 2.5-3.5 3.8-4.9q6.2-6.3 12.5-12.4c1.2-1.1 1.6-3.2 2.8-4.3.6-.6 2-.7 2.7-1.2q1.4-1.7 3-3c.8-.5.9.4 1.5-.2l2.1-2c2.6-2.6 4-4.3 7.2-6 1.4-3.4 7.9-6.6 10.5-9.7.8-1 5.3-1.5 5.5-3.6 0-.6 2.1-1.7 2.6-2.3 4.3-4.1 9-6.8 14-9.8 3-1.8 5-3.9 8.5-5.4 2.4-1 4.7-3.3 7.5-3.9 2-.3 5-1.8 4.3-4.1-.8-3.6-4.3-3.6-6.9-5.1-5-2.4-14.2-3-21.8-.5l-13 4.4c-5.1 1.7-10 3.8-15.6 1.9-8.2-1.6-18.2-12.7-21-20.2-2.6-7-4.6-20-1-27 .3-1 1.3-2 2-3" transform="translate(20.7 13.2)scale(.682)"/>
  <path fill="url(#b)" d="M266.2 428.4c37.7-1.6 76.6-6 112-20 3.3-1.3 5.4-3.2 9.3-4.2h.4a77 77 0 0 1-17 17.8c-1.4 1.1-3.4 2.2-5 3.3.2 1 1 1.8 1.5 2.6 5.9-2 13.7-6.2 18-10.7q1 6.7 1.2 13.4c.6 9.2 1.9 20-3.5 28-4.4 6.4-14.6 9.5-21.8 10.7l-3.8.6-3 .3c-8.1.2-21.3.5-27.7-4.8-4.7-3-8.9-11.7-8.9-11.7s-1.6-3.6-1.4-5c7.7-3.3 15.7-3.3 22.4-8.9.5-.4 2.3-2 2.5-2.4l-.2-.4a71 71 0 0 0-12.5 1.2c-.6 0-3.8.1-4.3.5-1.4 0-11 0-19 1.3-20 2.7-40.4 2.6-60.6 3.3q-2.4.4-4.9.3c-.9-5.2 4.7-9.8 5.6-15.3.3-.7 0 .4.5.6 3.3 1 9.7-.5 20.2-.5" transform="translate(20.7 13.2)scale(.682)"/>
  <path d="M314.6 241.6c2.5 6.8 2.4 14.8-7.5 23.5-7.5 4-8.6-1-13.6-1.8-3.9-1 13.7-14.4 17.7-18.3a7 7 0 0 1 2.1-1.6z"/>
  <path fill="url(#c)" d="M96.3 462c-8.4-2-15-4-20.8-11.2-3.4-4.3-3.2-12.5-1.5-17.5 1-3 4.3-7.4 5.9-10.5q6.3-12 12.3-24.4c1-2.1 3-8.6 4.5-9.8 1.1.3 10.5 13.9 12.2 15.4.6.5 3.2 5.4 3.8 6.5q.2-2 0-4c-.1-1.5-.5-2-.4-3.7 3.2 1.8 7.2 3.5 10.5 5.1q5.6 3 11.2 5.4l8.4 3.2c1 .4 4.1 1.4 5 2a39 39 0 0 1-5.6 7.8c-1.7.2-4.4-2.8-6.8-4.2.3 2.6.4 3.8.3 6.4a12 12 0 0 1 3.5 4.2A190 190 0 0 1 130 449l-.7 1.2c-.4 1.1-5 11.7-6.2 11.8-3 0-5.8 1.4-8.7 1.7-4.2.4-8.3.1-12.5.1q-2.9-.7-5.6-1.8" transform="translate(20.7 13.2)scale(.682)"/>
  <path fill="#98ce02" d="M153.7 52.6c-6.7.6-9.3 5.2-15.6 6-3.7.5-9.2.7-12.3-1.7-4.3-3.5-6.4-10.8-6.4-16.2.4-8.2 9.4-13.6 16.7-14.3a38 38 0 0 1 26.4 9v.2c-.2 2.6.5 6.1-.4 8.4-1.8 4.2-4 7.3-8.5 8.6"/>
  <path fill="#65912a" d="M162.5 35.3a89 89 0 0 1 16.9 15.5c2 2.4 4 5.7 6 8.2 2 3 4 6.5 6.3 9.1-.6.2-2.5 1.5-3.4 2l-6.2 2.7c-.5-.2-2.8.2-3 1.2a32 32 0 0 0-11.8-16.5 52 52 0 0 0-9.2-4.3l-4.5-.6c4.5-1.3 6.7-4.4 8.5-8.6 1-2.2.2-5.8.4-8.4z"/>
  <path fill="#659629" d="M230 319.7c1.4 3.1 0 1.8 2.5 8.4q.2.6-.2 1c-.7.5-4.9.9-6.1 1-.8-.2-2.4.2-3.4.2-2.5.2-3.8-.3-6.1-1a27 27 0 0 1-15.8-7.4l4.8.1c8.2.4 16.4-2.1 24.4-2.3"/>
  <path fill="url(#d)" d="M458.6 211.9c1.4 2.3 1.3 4 2.4 6a65 65 0 0 1 8.2 33.1c-.1 6.8 0 11.3-2 18.2-1 3-2.8 10.5-4 12.8-.6 2.8 0 6.1-.4 8.9a59 59 0 0 1-6.6 20.7c-.9 1.5-1.8 4.2-2.9 5.4-1.6 2-9-1.1-10.6.7-4.9 8.7-6.5 9.3-13.6 20a54 54 0 0 1-30.4 29c-5.2 3-15.2 2.7-19.7 5.6q-.2-.6-.7-.7c-3-.3-6.7 1.3-9.6 1.5-1-.4-13.2.3-15 .4q-16 .2-31.9 1c-1 0-2.4.1-3.3.6-1.7 0-7.5.2-8.5 1.5-2.4-2.4-9.7-.4-13-.3-.6.7-2.8.5-3.3-.1-13.7 1.5-27.2 2.4-40.6 5.9a43 43 0 0 0-13 8.7c-1 0-4.7 2.9-6.6 3.6-4.5 2.2-30.8 23.5-33 22.2v-.5A120 120 0 0 1 218 396c8.5-8 19-17 29.8-21.6 10.2-4.4 23.4-5.1 34.5-6 23.5-1.9 47.1-2.8 70.6-4.8 13.3-1.1 27.2-1.4 39.8-6.2 7.6-3 16.7-8.5 22.1-14.6 4.9-5.3 9.4-11.8 13.2-17.9 12.4-20.1 26-44.6 31-67.8 0-1.3 0-1.7.3-3 1.8-4.5-.8-12.8-2.3-17.3-.4-1.3-1-2.6-2.4-2.8 0-3 1.7-8.3 2.1-11.7.4-3.1.5-5.4.6-8.5q.1-1.3 1.3-2" transform="translate(20.7 13.2)scale(.682)"/>
  <path d="M336.7 205.6c-.5 1.9 0 4.1-.4 6a40 40 0 0 1-4.5 14.2c-.6 1-1.2 2.8-2 3.6-1 1.4-1.3 1.4-2.3 2.6-.6-.1-3.7 1.4-5-.7-.6 0-1-1.5 0-2-.2 0 .2.4 0 0 .1-.7 4.4-7.4 5.1-8.6l3.5-6.3c.3-.7.7-1.7 1.4-2.2 0 0 2-5.2 4.1-6.6"/>
  <path fill="#fefefe" d="M332.3 212.2c.8.2-.2 2.6 0 3.3-1 4.1-3 11.6-6.8 13.5-1.1.6-1.5.6-2.7.7l-.3-.3c.1-.8 4.4-7.5 5.1-8.7zm-19 31.6.1.3c-1.2 4-4.8 13.5-8.4 15.7-1.6 1-3 .7-4.7.4-.5-.3-.3 0-.7-.5l4.3-4.5c3.4-3.6 5.8-8.2 9.4-11.4"/>
  <path d="M272.1 267.6c2 0 4.5-1.1 6.6-1q.3.1.5.6c-2.3 4.3-5.5 6.8-8.4 10.4-4.8 4.3-8.4 6.3-15 6.1a34 34 0 0 1-15-4.7 48 48 0 0 1-8.7-9c.7-.8 4.6-1 5.8-1q1-.4 2.3-.3 10.8-.6 21.6-.7c1.3 0 9.6-.6 10.3-.3"/>
  <path fill="#fefefe" d="M237.9 269q1-.4 2.3-.3 10.8-.6 21.6-.7c1.3 0 9.6-.6 10.3-.3v.1c-4.3 4.8-7.1 10.5-14.3 10.9-6.5.3-16-5-19.8-9.6m-53.6 10.7a29 29 0 0 1 8.8-6 101 101 0 0 1 23.9-3.6c-1.6 4-4 7.3-6.3 10.9-6.1 9.5-19.6 5.2-26.4-1.3"/>
  <path d="m217.1 270 3.9-.2c.7.2 2-.3 2.5.2-1 2.3-4.2 6.7-5 8.5a36 36 0 0 1-7.4 9.1c-10.2 7.5-23.3 3-31.2-5.4 1.4-.4 3.8-2.5 4.5-2.4 6.8 6.5 20.3 10.8 26.4 1.3 2.3-3.6 4.7-7 6.3-11"/>
  <path fill="#65912a" d="M279.2 267.2c3-2 9.9-1.8 13.4-3.8q1.5-.7 2.9.3l.2.1c1.5.9 3.3 1.1 4.3 2.5q.2.5-.3 1.1l-.2-1.2q-.8-.3-1.6-.3l-4.1 3.1c-4.3 3.4-17.5 9.5-22.8 8.6h-.2c3-3.6 6-6.1 8.4-10.4m-56 2.7c2.3 0 7.3-1.4 8.9.2 3 3.9 4.8 5.7 8.7 8.9a75 75 0 0 1-14 0c-1.8-.2-6.8 0-8.3-.5.7-1.8 2.6-5 3.6-7.3z"/>
</svg>
