<svg xmlns="http://www.w3.org/2000/svg" viewBox="468 241 1162 1404">
<!--green fill-->
  <path fill="#9ecd09" d="M974 451c40 6 71 29 99 57l2 4c12-1 27-6 40-6l67-4h41c12 1 27 9 35-1q35-44 50-96c16-55 25-133 87-154q17-7 34-9c33-3 52 6 78 25 34 25 29 73 4 103-21 28-79 28-106 49-22 17-41 46-54 70-8 14-19 30-19 46q1 5 5 8a675 675 0 0 1 131 132l28 33q36 47 61 100l25 53 18 31c11 26 22 57 28 84 2 8 2 25 1 33q-3 20-11 41l-5 22-7 15q-16 43-34 84l-15 25-17 35-15 31c25 6 67 28 81 51 15 24 4 70-8 95-18 40-53 75-91 98q-37 22-78 30h-10l-29 5c-9 1-36 2-44 1l-45-2q-60-7-118-23l-39-12 3-3v-1l-3-3-1-3-15-2-5 6-12 17c-36 48-77 106-138 121-46 14-94 8-139-6-23-6-52-15-72-30-66-51 7-123 43-166l-28-15c-32 59-53 112-130 120-34 4-64-7-95-18-44-16-93-43-83-97 8-41 22-58 45-91l28-41q14-19 23-39v-2c-5-14-1-23 1-37l1-24q5-38 32-62c9-9 10-6 15-17-9-47-5-146 2-195-1-8-8-24-10-34-4-26-3-56-1-82 4-30-11-41-8-64 4-31 54-80 78-98 4-4 10-29 15-38 7-14 10-22 19-36 47-84 140-116 232-116z"/>
<!--eye outline-->
  <path fill="#4a5b20" d="M974 451c40 6 71 29 99 57l2 4c12-1 27-6 40-6l67-4h41c12 1 27 9 35-1q35-44 50-96c16-55 25-133 87-154q17-7 34-9c33-3 52 6 78 25 34 25 29 73 4 103-21 28-79 28-106 49-22 17-41 46-54 70-8 14-19 30-19 46q1 5 5 8a675 675 0 0 1 131 132l28 33q36 47 61 100l25 53 18 31c11 26 22 57 28 84 2 8 2 25 1 33q-3 20-11 41l-5 22-7 15q-16 43-34 84l-15 25-17 35-15 31c25 6 67 28 81 51 15 24 4 70-8 95-18 40-53 75-91 98q-37 22-78 30h-10l-29 5c-9 1-36 2-44 1l-45-2q-60-7-118-23l-39-12 3-3v-1l-3-3-1-3-15-2 11-21q21-37 37-76l1 1 22-5q77-15 149-47l28-14q65-35 119-85l25-23c15-25 29-60 40-87 16-40 35-79 42-123 5-40-2-67-16-103q-38-90-92-170-20-32-43-63-26-31-54-61-1-2-3-2 0 5 3 9c26 40 32 97 21 143-14 54-60 113-108 142-67 39-156 47-231 29-71-17-124-49-162-112l-2 1c-12 12-65 20-82 18-44-3-90-24-119-58-24-27-33-52-38-88l-2-24c2-4 3-28 1-35 4-4 10-29 15-38 7-14 10-22 19-36 47-84 140-116 232-116z"/>
<!--eye fill-->
  <path fill="#fff" d="M878 467c48-7 102-10 144 21 14 10 22 20 33 34l-11 10q6-2 11-1v1l-9 8c84-29 125-26 209-4 59 20 97 42 127 101 28 58 22 131-11 186-19 31-59 58-90 74-25 13-41 16-65 22l-52 7q-87 5-163-39l-22-16c-22-20-37-39-53-64v1l-12-3-2 1c-3 8-42 15-51 18-36 4-63-2-95-19-41-27-57-56-65-103q-11-67 20-127c22-42 77-85 121-98z"/>
<!--bottom eye outline edge-->
  <path fill="#4a5b20" d="M916 774q7 17 10 33v1l-12-3-2 1c0-9 3-23 4-32"/>
<!--top eye outline edge-->
  <path fill="#4a5b20" d="M1044 532q6-2 11-1v1l-9 8-12 4z"/>
<!--left pupil-->
  <path d="M1118 667c31-7 15 57 2 72-40 47-61 8-44-35q11-31 42-37"/>
<!--left pupil reflection-->
  <path fill="#fff" d="m1112 673 1 3c-1 6-13 10-19 11q5-11 18-14"/>
  <path fill="#1b2609" d="M915 673c6-25 17-50 45-56q19-3 20 17c3 65-67 109-65 45z"/>
<!--right pupil-->
  <path d="M915 673c6-25 17-50 45-56q19-3 20 17l-6-12c-3-4-15-4-19 0l2 2c-6 0-18 5-18 12h-5c-6 6-14 26-15 34z"/>
<!--right pupil reflection-->
  <path fill="#fff" d="M939 636c0-7 12-12 18-12 0 10-10 9-18 12"/>
<!--right leg shadow-->
  <path fill="#719937" d="m1176 1396 1 1 22-5q77-15 149-47l28-14q65-35 119-85l25-23c-4 11-15 29-20 41 21 2 61 32 74 49 28 35-12 100-36 128-17 18-48 38-71 50-46 18-108 20-157 20q-33 1-67-2-50-4-100-14l-15-2 11-21q21-37 37-76"/>
<!--right leg line??-->
  <path fill="#476218" d="m1545 1322 12-1c-36 26-55 44-70 85l-9 30v1l-3 5v-1c-4-33 10-82 33-107 7-7 28-11 37-12"/>
<!--antenna fill-->
  <path fill="#9ecd09" d="M1343 349c10-31 25-63 55-78 22-10 42-15 65-7 16 5 36 18 44 33 7 15 4 32-1 47q-7 18-23 25c-22 10-69 19-88 31l-11-2c-12-4-27-15-36-24l-6-12-2-5z"/>
<!--antenna shadow-->
  <path fill="#719937" d="M1272 523c8-7 15-23 21-33q19-35 30-72l17-61 2 5 6 12c9 9 24 20 36 24l11 2-20 18c-17 18-69 99-59 122z"/>
<!--mouth outline-->
  <path d="M777 959q1-4 4-4c12 2 23 13 32 18 22 13 45 19 69 29 6 3 21 6 24 9q6-3 9 2 58 11 116 15c7 1 42 2 46 4 11-3 17 1 27 2 18 0 40-2 58 1q5 1 9 4 11 13 18 29 7 4 11 11 17 4 33 2c10-1 23-12 31-11 18-12 45-37 51-40q5-2 9 0c-11 19-37 52-51 70-11 16-33 40-46 55a422 422 0 0 1-225 145c-76 12-167 0-231-44a146 146 0 0 1-58-105l4-2c3-5 10-13 12-18 2-3-1-13-1-16l2-28-2-43c0-1 0-17 1-15-3-10-8-23 4-28 14-4 43-28 44-42"/>
<!--mouth fill-->
  <path fill="#7f1913" d="M777 959q1-4 4-4c12 2 23 13 32 18 22 13 45 19 69 29 6 3 21 6 24 9-3 10 6 31 12 39l-5 1-16 15c-15 14-29 44-30 65l3 20v18c-19 0-46 2-63-2l-2-5q-4-10-13-18c-13-10-32-4-47-1-7-19-2-34-1-53v-52c-1-10-13-30-11-37 14-4 43-28 44-42m327 75q28-2 63 1 6 2 6 4 9 13 16 29 7 4 11 11 17 4 33 2c10-1 23-12 95-67-61 70-70 75-75 82l-8 8-23 27-1 4-34 36c-6 6-38 36-44 37q-5 0-9-4c0-9 17-35 22-46 8-19 0-47-6-66-4-13-26-27-38-31-8-3-21-3-25-12 4-10 5-15 17-15"/>
<!--tongue fill-->
  <path fill="#d43329" d="M784 1190q10-4 22-6c22-6 43-4 66-3 5 1 13-1 17 2 0 4-12 6-17 13v5c9 7 50-10 61-12 23-4 76-11 98-5q5 1 6 4c2 7-6 11-12 12q-35 4-65 25l-9 9-1 3-24 23-14 22c-42-4-124-22-153-54 3-5-3-9 1-16 4-9 15-18 24-22"/>
<!--tooth 3-->
  <path fill="#fff" d="M906 1011q6-3 9 2 58 11 116 15c7 1 42 2 46 4 11-3 17 1 27 2-12 0-13 5-17 15l-8 4-9 11c-8 4-28 27-36 35-11 6-7 11-19 11l-17 3c-9 3-14 9-23 9l-4 1h-3q-5-7-11-11l-2-5q-7-6-12-14c-3-9-14-26-20-34l-5-9c-6-8-15-29-12-39"/>
<!--tooth 3 outline-->
  <path d="M906 1011q6-3 9 2c3 18 25 52 36 69 10 10 15 14 29 19 25 7 64-24 78-43 5-6 13-19 19-23v-3c11-3 17 1 27 2-12 0-13 5-17 15l-8 4-9 11c-8 4-28 27-36 35-11 6-7 11-19 11l-17 3c-9 3-14 9-23 9l-4 1h-3q-5-7-11-11l-2-5q-7-6-12-14c-3-9-14-26-20-34l-5-9c-6-8-15-29-12-39"/>
<!--uvula-->
  <path fill="#7f1913" d="m998 1113 17-3c18 5 10 30 6 42-11 5-18 6-29 8l-12-6c-1-12-7-15-11-26l2-5 4-1c9 0 14-6 23-9"/>
<!--tongue parts-->
  <path fill="#7f1913" d="M912 1282c-42-4-124-22-153-54 3-5-3-9 1-16 4-9 15-18 24-22l-4 5c-1 3 9 20 12 23 17 13 40 18 60 23 16 1 53 4 68 2 6-1 20-9 31-9l-1 3-24 23z"/>
  <path fill="#fff" d="M1018 1219c22-4 41 18 49 36a365 365 0 0 1-141 29l5-7c13-19 38-39 58-50 7-4 21-7 29-8"/>
  <path fill="#7f1913" d="M1031 1184c24 2 55 13 77 23 5 2 18 14 20 18l-1 2h-5l-7 6-4 6c-6 4-21 10-28 13l-4-8c-9-21-15-26-31-41l-23-3c6-1 14-5 12-12q-1-3-6-4"/>
  <path fill="#fff" d="M764 1152c7-1 10-1 17 3q9 4 14 13c-2 4-17 6-24 9l-19 14q-3 6-9 10c-4-3-11-22-12-28q-1-3 1-5 13-15 32-16"/>
<!--arm outline-->
  <path fill="#4a5b20" d="M616 917c3 4 11 12 15 14l-2-3h5l-1 3h1v20l-3 41q-2 53 1 106c1 23 1 40 4 63q-29 59-62 116c-26 48-69 91-79 147-4 26 28 50 50 60 39 17 96 35 139 21 58-23 94-115 126-166l1 1q-5 8-8 18c16 4 38 14 54 20 8-7 24-24 32-29l-1 1-21 26-29 38c-22 28-75 96-68 133q6 18 23 28c42 27 119 36 166 25 49-12 77-34 110-70 6-6 16-21 22-25 15-5 72-107 82-126 2-5 7-15 12-17v1c0 4-5 8-4 11l2-2-4 12q-10 29-25 56c-3 6-15 28-15 32l-11 21-5 6-12 17c-36 48-77 106-138 121-46 14-94 8-139-6-23-6-52-15-72-30-66-51 7-123 43-166l-28-15c-32 59-53 112-130 120-34 4-64-7-95-18-44-16-93-43-83-97 8-41 22-58 45-91l28-41q14-19 23-39v-2c-5-14-1-23 1-37l1-24q5-38 32-62c9-9 10-6 15-17-9-47-5-146 2-195"/>
<!--right arm outline part-->
  <path fill="#476218" d="m1208 1308 2 5c-12 26-23 57-34 83q-16 40-37 76c0-4 12-26 15-32q15-27 25-56l4-12-2 2c-1-3 4-7 4-11v-1c-5 2-10 12-12 17-10 19-67 121-82 126l27-35q39-61 72-126z"/>
<!--right leg outline part-->
  <path fill="#476218" d="m1123 1499 5-6 15 2 1 3 3 3v1l-3 3-8-2z"/>
<!--left left fill-->
  <path fill="#719937" d="M613 1142c4 4 7 21 9 27 2 9-18 37-24 45l-2 1-2-1c-3-6 2-39 2-49z"/>
<!--in-between leg shadow-->
  <path fill="#719937" d="M803 1358c16 4 38 14 54 20-14 15-24 27-37 44-6-5-27-16-34-18z"/>
<!--mouth upper outline-->
  <path fill="#4a5b20" d="M675 639c2 7 1 31-1 35l-1-9-20 24c-15 19-30 38-30 64q1 13 6 25c10 22 47 62 66 79 45 38 99 82 152 108 43 22 110 29 158 36q115 18 231 14 71-2 141-9l61-8 34-3c-36 19-83 21-122 28l-24 4-11 3c-146 8-150 5-153 5-18-3-40-1-58-1-10-1-16-5-27-2-4-2-39-3-46-4q-58-4-116-15-3-5-9-2c-3-3-18-6-24-9-24-10-47-16-69-29-9-5-20-16-32-18q-3 1-4 4l-1-6q-6-3-13-3c3-3 2-1 2-4l-18-15q-31-25-60-53-12-13-25-23 0-3-3-7l-7-1c1-9-17-24-21-32-3-4-14-20-17-21l-3-9h-1c-3 6-2 12-5 16 4-30-11-41-8-64 4-31 54-80 78-98"/>
<!--tooth 4 outline-->
  <path d="M1287 1032c10-1 25-12 39-5l-2 3q-4-2-9 0c-59 39-72 50-82 51q-16 2-33-2-4-7-11-11-6-14-21-35 14 3 21 2h54c6 0 40-4 44-3"/>
<!--tooth 4 fill-->
  <path fill="#fff" d="m1188 1036 55-1c6 0 40-4 44-3a82 82 0 0 1-57 26h-18q-15-9-22-19Z"/>
<!--tooth 1&2 outline-->
  <path d="M605 801c3-4 2-10 5-16h1l3 9c3 1 14 17 17 21 4 8 22 23 21 32l7 1q3 4 3 7 13 10 25 23 29 28 60 53l18 15c0 3 1 1-2 4q7 0 13 3l1 6c-1 14-30 38-44 42-12 5-7 18-4 28-1-2-1 14-1 15l2 43-2 28c0 3 3 13 1 16-2 5-9 13-12 18l-4 2c0-11 1-13 9-20 4-26 4-47 2-73l-2-17-4-28c-42-11-53-65-61-101l-22 16-1 3h-1l1-3h-5l2 3c-4-2-12-10-15-14-1-8-8-24-10-34-4-26-3-56-1-82"/>
<!--tooth 2 fill-->
  <path fill="#fff" d="M662 855q13 10 25 23 29 28 60 53l18 15c0 3 1 1-2 4-20 30-44 48-69 11-23-34-26-68-32-106"/>
<!--tooth 1 fill-->
  <path fill="#fff" d="M614 794c3 1 14 17 17 21 4 8 22 23 21 32l2 36c1 10-10 12-17 14-24-14-23-78-23-103"/>
</svg>
