<svg xmlns="http://www.w3.org/2000/svg" viewBox="355 177 1608 1840">
  <path fill="#4f682e" d="M1176 489c30 0 68-19 98-22 34-3 72-5 106-1 81 14 174 57 233 115 31 31 58 78 77 118 8 16 11 39 24 55 41 24 97 57 109 106 8 36 4 75 6 113 4 113 8 226-9 339q-9 57-22 113c35 31 62 45 105 64 15 6 30 8 42 18q16 15 18 38c0 69-37 135-81 186q-15 17-32 33c13 48 28 94 0 140-18 30-64 46-96 52-108 19-259 32-308-92-2-6-3-20-5-21-21-1-41 12-63 16l-21 3q-9-1-18 1c5 33 13 72-9 102-9 13-41 32-55 35-26 6-58 12-84 15q-35 2-70 1c-77 0-164-2-227-52-17-14-32-35-42-55l-8-21-2-15c-7-4-30-1-36-1l-181 20c-19 3-29 0-48 4-16 4-61-6-78-11l-22-11c-56-35-100-93-117-158-6-21-8-53 4-71 11-17 42-30 59-41 32-21 90-62 106-96l-19-46c-31-82-63-165-77-252-2-16-13-32-12-49q3-43 21-81c11-26 22-37 38-58 2-6-1-82-1-96 3-94 48-189 117-254a354 354 0 0 1 183-84c22-4 34-2 54-14 4 9 17 1 22 3q32-22 65-39c11 15 15 13 33 9 29 2 45-6 65-27l18-14c19-10 91-8 110-1z"/>
  <path fill="#354122" d="M1176 489c30 0 68-19 98-22 34-3 72-5 106-1 81 14 174 57 233 115 31 31 58 78 77 118 8 16 11 39 24 55l3 32q3 22 2 46 0 92-55 165a498 498 0 0 1-306 173c-72 11-161-11-223-48-20 22-50 58-72 76-140 109-345 133-485 9a374 374 0 0 1-98-185c2-6-1-82-1-96 3-94 48-189 117-254a354 354 0 0 1 183-84c22-4 34-2 54-14 4 9 17 1 22 3q32-22 65-39c11 15 15 13 33 9 29 2 45-6 65-27l18-14c19-10 91-8 110-1z"/>
  <path fill="#a3d319" d="m1018 520 18-14c19-10 91-8 110-1-54 38-82 67-117 123-67-37-101-38-174-51q32-22 65-39c11 15 15 13 33 9 29 2 45-6 65-27"/>
  <path fill="#fafcfc" d="M1318 480c148-9 314 111 358 252 31 101-4 222-78 296-61 61-125 79-204 101-102 29-182 3-269-47a211 211 0 0 1-58 75 421 421 0 0 1-242 103c-83 6-165-21-228-76-59-51-85-144-92-220-7-83 29-185 82-248 61-71 146-101 237-106 86-6 154 16 220 73 15-36 38-90 65-118 60-63 127-81 209-85"/>
  <path fill="#1b1b1b" d="M972 902q50-1 69 43c15 35 12 85-25 102-27 10-53-16-64-38a99 99 0 0 1-5-77q6-21 25-30"/>
  <path fill="#fafcfc" d="M994 915c14 2 27 9 29 25-12-3-29-10-29-25"/>
  <path fill="#1b1b1b" d="M1162 848c59-2 86 62 71 112-5 18-15 26-30 34-66 16-105-116-41-146"/>
  <path fill="#fafcfc" d="M1182 860q23 5 29 26c-13-3-31-10-29-26"/>
  <path fill="#a3d319" d="m1717 786 1-5 2-1 18 13c21 16 47 40 55 66 13 43-9 95-29 132q-21 41-51 77a1203 1203 0 0 1-479 318c-61 19-122 22-186 22-158 0-320-28-461-102-53-28-105-67-124-126-14-43-1-85 18-123l5-6c16 52 51 120 92 156 140 124 345 100 485-9 22-18 52-54 72-76 62 37 151 59 223 48 113-16 236-82 306-173q55-73 55-165 1-24-2-46"/>
  <path fill="#a3d319" d="M1800 995a1761 1761 0 0 1-26 452c-3 10-19 58-18 65h2q6 3 8 8l6 37a1991 1991 0 0 0 36 168q14 44 20 90c2 18 3 38-6 54-11 22-43 40-67 45-69 15-177 26-240-9-34-18-58-69-66-104l-14-76c-2-10-4-27-8-35l-1-1v1q-2 56 4 110l1 17q-50 15-102 26l-22-47c-5-9-14-25-18-35l-5-8-3 5c14 52 60 142 10 186-34 30-100 35-145 36-77 3-195 9-246-61-18-27-23-61-31-91-12-46-29-152-61-186q1 40 7 80c6 39 10 88 19 125-95-2-210 33-303 6-60-17-129-112-138-173-6-40 27-49 55-65q71-40 92-117c2-7-2-19 1-27l4-3c-4-19-18-55-25-76q-20-60-37-123c10 7 71 48 74 55 9-2 17 5 23 11 9 0 66 30 82 35 18 6 45 17 65 23l55 17 27 6 81 17c7 0 20 0 25 5 7-3 56 5 67 6q56 4 111 3c12 0 43-5 51-3 9-5 50-11 63-15l48-13c7-2 32-12 36-11q21 17 47 25l28 8q19 6 40 8c30 4 44 1 68-18 43-36 49-80 46-133v-11l72-51 21-17 25-23 38-35c27-26 46-51 70-80l1 33c2-4 1-27 0-34 4-5 10-15 15-18l2 1v-4q16-31 36-61"/>
  <path fill="#50201f" d="M1520 1295v-11l72-51q17 8 35 12 15 2 26 9l2 3a513 513 0 0 1-197 343c-56 38-151 75-217 87a670 670 0 0 1-182-2c-78-16-161-77-217-132-23-23-60-69-78-95l1-1 1-1 20-16 23-24 81 17c7 0 20 0 25 5 7-3 56 5 67 6q56 4 111 3c12 0 43-5 51-3 9-5 50-11 63-15l48-13c7-2 32-12 36-11q21 17 47 25l28 8q19 6 40 8c30 4 44 1 68-18 43-36 49-80 46-133"/>
  <defs>
    <linearGradient id="a" x1="1225.8" x2="934.5" y1="1321.5" y2="1602.5" gradientUnits="userSpaceOnUse">
      <stop offset="0" stop-color="#5a2522"/>
      <stop offset="1" stop-color="#2c4922"/>
    </linearGradient>
  </defs>
  <path fill="url(#a)" d="M1144 1444c9-5 50-11 63-15l48-13c7-2 32-12 36-11q21 17 47 25c-11 2-18 3-29 7l-64 25c-30-10-44-16-77-17-11 9-16 18-26 29-31 31-49 50-90 69l-18 6c19 37 33 64 36 106l-26-6a398 398 0 0 1-190-130c-10-1-58-66-68-79l23-24 81 17c7 0 20 0 25 5 7-3 56 5 67 6q56 4 111 3c12 0 43-5 51-3"/>
  <path fill="#fafcfc" d="M915 1438c7-3 56 5 67 6q56 4 111 3c12 0 43-5 51-3-27 24-50 47-82 64-66 36-118-15-147-70m-47 99c21-16 35-23 59-33 28 28 42 37 80 47 8 15 41 84 37 98-76-28-120-53-176-112"/>
  <path fill="#a3312d" d="m809 1416 81 17 22 48c-17 10-45 25-58 38-10-1-58-66-68-79z"/>
  <path fill="#e14537" d="M1474 1428c2 7 3 7 11 9-7 8-14 23-19 28l-24 48c-79 58-215 78-311 65-25-4-62-16-79-35 41-19 59-38 90-69 10-11 15-20 26-29 33 1 47 7 77 17l64-25c11-4 18-5 29-7l28 8q19 6 40 8c30 4 44 1 68-18"/>
  <path fill="#50201f" d="M1474 1428c2 7 3 7 11 9-7 8-14 23-19 28-11-6-24-6-37-8q-68-7-134 16-25 9-49 23c-40-15-60-21-104-22 10-11 15-20 26-29 33 1 47 7 77 17l64-25c11-4 18-5 29-7l28 8q19 6 40 8c30 4 44 1 68-18"/>
  <path fill="#a3312d" d="M1052 1543c17 19 54 31 79 35 96 13 232-7 311-65-6 23-14 48-9 71a502 502 0 0 1-301 76l-62-5c-3-42-17-69-36-106zm468-248v-11l72-51q17 8 35 12a904 904 0 0 1-52 165c-37-13-64 1-90 27-8-2-9-2-11-9 43-36 49-80 46-133"/>
  <path fill="#354122" d="M1485 1437c26-26 53-40 90-27l-9 23c-24 49-62 106-108 136q-11 9-25 15c-5-23 3-48 9-71l24-48c5-5 12-20 19-28"/>
  <path fill="#fafcfc" d="m1458 1569 2-18c12-50 40-131 106-118-24 49-62 106-108 136"/>
  <path fill="#7aa344" d="M541 1471c5 10 17 45 24 51 47 95 96 157 202 192 9 3 38 14 45 13 3-2 2 0 3-5 6 39 10 88 19 125-95-2-210 33-303 6-60-17-129-112-138-173-6-40 27-49 55-65q71-40 92-117c2-7-2-19 1-27"/>
  <path fill="#4f682e" d="M467 1644c34-4 55 13 74 39s23 49 27 81l-8-16c-32-60-56-79-119-100z"/>
  <path fill="#354122" d="M1747 1077c4-5 10-15 15-18l2 1c8 62 8 173-76 191-8 2-29 0-33 5v1l-2-3q-11-7-26-9-18-4-35-12l21-17 25-23 38-35c27-26 46-51 70-80l1 33c2-4 1-27 0-34"/>
  <path fill="#fafcfc" d="m1613 1216 25-23 38-35c27-26 46-51 70-80l1 33c-3 33-16 76-41 99-26 21-63 12-93 6"/>
  <path fill="#7aa344" d="M1426 1690q-2 56 4 110l1 17q-50 15-102 26l-22-47c-5-9-14-25-18-35l135-28c0-11-1-32 2-43"/>
  <path fill="#fafcfc" d="M580 1335c9 0 66 30 82 35 18 6 45 17 65 23l55 17c-31 25-68 56-109 38-29-12-59-42-74-69z"/>
  <path fill="#354122" d="M557 1324c9-2 17 5 23 11l19 44c15 27 45 57 74 69 41 18 78-13 109-38l27 6-23 24-20 16-1 1-1 1c-38 26-70 39-114 13-55-32-77-88-93-147"/>
  <path fill="#3b6402" d="m541 1471 4-3 20 54c-7-6-19-41-24-51m740 287-8-25 11 20z"/>
  <path fill="#7aa344" d="M1796 1448c2 1 9 8 10 11q29 30 68 43c11 4 29 9 38 15 25 17 12 56 4 79a396 396 0 0 1-77 122c-19-47-30-102-52-149q-10-20-16-41z"/>
  <path fill="#fafcfc" d="M1499 1307c1-5-1-6 5-11 5-5 5-8 13-9 3 3 2 3 3 8 3 53-3 97-46 133-24 19-38 22-68 18q-21-2-40-8l-28-8q-26-8-47-25 10-7 22-8l1-2c11-7 36-16 48-22q40-18 77-40c9-5 55-35 60-31z"/>
  <path fill="#354122" d="M1499 1307c1-5-1-6 5-11 5-5 5-8 13-9 3 3 2 3 3 8 3 53-3 97-46 133-24 19-38 22-68 18q-21-2-40-8l-28-8q-26-8-47-25 10-7 22-8 41 14 83 21c71 10 97-51 103-111"/>
  <path fill="#4f682e" d="M926 509c-4-17-12-47-23-61-81-97-228 15-306-95-81-111 61-194 162-173 75 13 115 63 158 120 33 43 58 85 80 134 7 15 19 33 28 46q76-8 151 9l-30 16c-19-7-91-9-110 1l-18 14c-20 21-36 29-65 27-18 4-22 6-33-9q-33 17-65 39c-5-2-18 6-22-3l11-9q40-29 82-56"/>
  <path fill="#a3d319" d="m799 377-41 3c-14 1-36 4-49 3-31-4-70-16-90-41a70 70 0 0 1-15-53q2-17 10-31c34-65 136-67 192-33 23 15 52 39 69 61-18 39-31 79-76 91"/>
  <path fill="#7aa344" d="M875 286c28 36 50 64 73 104 18 29 49 108 70 130-20 21-36 29-65 27 2-55-6-90-48-130-32-30-62-41-106-40 45-12 58-52 76-91"/>
</svg>
